<svg id="svg1" xmlns="http://www.w3.org/2000/svg" viewBox="0 0 332.09 344.69"><defs><style>.cls-1,.cls-2,.cls-3,.cls-5,.cls-6{fill:#6ec1d7;}.cls-1,.cls-2,.cls-3,.cls-4,.cls-5,.cls-6{fill-opacity:0.58;stroke:#000;stroke-width:5.39px;}.cls-1{stroke-linecap:square;}.cls-1,.cls-2,.cls-3,.cls-4{stroke-miterlimit:2.83;}.cls-2,.cls-4,.cls-6,.cls-7,.cls-8{stroke-linecap:round;}.cls-4{fill:#50508e;}.cls-5,.cls-6,.cls-7,.cls-8{stroke-linejoin:round;}.cls-7{fill:red;}.cls-7,.cls-8{fill-opacity:0.58;stroke:#4fc674;stroke-width:5.39px;}.cls-8{fill:#ff2a2a;}</style></defs><path id="path14-8-0" class="cls-1" d="M184.44,154V76.88l-36.59-9.8V30.34l-41.17-11-2.5,9.32,25,43.37L115.84,85.41l18.29-4.91,38.58,66.82"/><path id="path15-0-2" class="cls-1" d="M147.85,154V76.84L184.44,67V30.3l41.17-11,2.5,9.31L203.07,72l13.38,13.4-18.29-4.91-38.58,66.83"/><path id="path32-2-4" class="cls-2" d="M166,2.69,108.41,36"/><path id="path33-4-8" class="cls-2" d="M101.08,40.18,108.41,36"/><path id="path34-8-3" class="cls-2" d="M101.08,40.18,97.44,53.59,137,64.18l29-29,29,29"/><path id="path35-3-9" class="cls-2" d="M166,2.69l65.13,38,3.43,12.95L195,64.18"/><path id="path36-9-0" class="cls-1" d="M191,179l66.8-38.56L248,103.86l31.82-18.37-11-41.17-9.31,2.49-25,43.38L216.11,85.3l13.4,13.38-38.58,66.83"/><path id="path37-0-5" class="cls-3" d="M172.74,147.31l66.8-38.57,26.79,26.78,31.81-18.37,30.14,30.14-6.82,6.83H271.38l-4.92,18.29L261.6,154H184.44"/><path id="path38-5-2" class="cls-2" d="M312.83,87.39l-57.6-33.26"/><path id="path39-2-2" class="cls-2" d="M247.9,49.9l7.33,4.23"/><path id="path40-2-7" class="cls-2" d="M247.9,49.9l-13.43,3.55L245.09,93l39.58,10.61-10.6,39.62"/><path id="path41-7-3" class="cls-2" d="M312.83,87.39l-.32,75.39-9.5,9.45-28.94-29"/><path id="path42-3-7" class="cls-1" d="M147.85,190.67v77.14l36.59,9.81v36.73l41.17,11,2.5-9.31-25-43.38,13.38-13.41-18.29,4.92-38.58-66.83"/><path id="path43-7-9" class="cls-1" d="M184.44,190.72v77.13l-36.59,9.81v36.73l-41.17,11-2.5-9.31,25-43.37-13.38-13.41,18.29,4.91,38.58-66.83"/><path id="path44-9-0" class="cls-4" d="M166.28,342l57.6-33.26"/><path id="path45-0-2" class="cls-5" d="M231.21,304.51l-7.33,4.23"/><path id="path46-2-3" class="cls-2" d="M231.21,304.51l3.64-13.4-39.59-10.6-29,29-29-29"/><path id="path47-3-9" class="cls-2" d="M166.28,342l-65.13-38-3.43-12.94,39.58-10.57"/><path id="path48-9-9" class="cls-1" d="M172.74,197.32l66.8,38.57,26.79-26.78,31.81,18.36,30.14-30.14-6.82-6.82H271.38l-4.92-18.29-4.89,18.29H184.41"/><path id="path49-9-7" class="cls-1" d="M191.07,165.66l66.8,38.56-9.8,36.59,31.81,18.37-11,41.17-9.31-2.49-25.05-43.37-18.3,4.88L229.59,246,191,179.16"/><path id="path50-7-0" class="cls-2" d="M313,257V190.51"/><path id="path51-0-3" class="cls-2" d="M313,182.05v8.46"/><path id="path52-3-9" class="cls-2" d="M313,182.05l-9.79-9.86-29,29,10.59,39.59L245.23,251.4"/><path id="path53-9-8" class="cls-6" d="M313,257l-65.46,37.41-12.93-3.5,10.65-39.57"/><path id="path54-8-6" class="cls-1" d="M159.35,147.24l-66.8-38.57L65.76,135.45,34,117.08,3.81,147.22l6.81,6.83H60.71l4.92,18.29,4.89-18.29h77.16"/><path id="path55-6-5" class="cls-1" d="M141,178.9l-66.8-38.57L84,103.74,52.2,85.38l11-41.18,9.31,2.5,25,43.37,18.3-4.89L102.5,98.57l38.58,66.82"/><path id="path56-5-7" class="cls-3" d="M19.08,87.53v66.52"/><path id="path57-7-6" class="cls-3" d="M19.08,162.51v-8.46"/><path id="path58-6-2" class="cls-2" d="M19.08,162.51l9.79,9.86,29-29-10.6-39.58L86.86,93.16"/><path id="path59-2-7" class="cls-2" d="M19.08,87.53,84.54,50.12l12.92,3.5L86.82,93.18"/><path id="path60-7-0" class="cls-1" d="M141.1,165.71,74.3,204.28l9.8,36.59L52.29,259.23l11,41.18,9.31-2.5,25-43.37L116,259.42,102.59,246l38.58-66.82"/><path id="path61-0-3" class="cls-1" d="M159.36,197.42,92.56,236,65.77,209.2,34,227.57,3.82,197.43l6.82-6.82H60.72l4.92-18.3,4.89,18.3H147.7"/><path id="path62-3-9" class="cls-2" d="M19.26,257.33l57.61,33.26"/><path id="path63-9-9" class="cls-2" d="M84.2,294.82l-7.33-4.23"/><path id="path64-9-9" class="cls-2" d="M84.2,294.82l13.43-3.55L87,251.69,47.43,241.07,58,201.45"/><path id="path65-9-1" class="cls-2" d="M19.26,257.33l.33-75.39,9.5-9.45,28.94,29"/><path id="path191" class="cls-7" d="M193.51,249.37l-6.22-10.72V224.53c0-7.77.28-14.13.63-14.13s6,3.06,12.54,6.81c12.57,7.17,13.53,8.14,20.36,20.49l4.3,7.76-5.6,5.45a27,27,0,0,1-12,7.33c-3.54,1-6.74,1.87-7.11,1.86s-3.47-4.84-6.88-10.73Z"/><path id="path192" class="cls-7" d="M221.83,179.49c-6.72-4-12.05-7.34-11.84-7.51s6.08-3.59,13-7.58l12.66-7.27H259l2,7.4c1.8,6.8,1.81,8,.1,14.8l-1.87,7.4-12.58,0-12.58,0Z"/><path id="path193" class="cls-8" d="M187.29,120.45V106.21l6.05-10.65c3.33-5.85,6.49-10.64,7-10.64s3.63.62,6.89,1.37c4.66,1.07,7.23,2.68,11.88,7.4l5.94,6-5.85,10c-5.55,9.5-6.37,10.34-15.64,15.81-5.38,3.18-11.24,6.53-13,7.46l-3.26,1.69Z"/><path id="path194" class="cls-8" d="M131.44,127.17c-12.58-7.29-12.67-7.38-18.56-17.39L107,99.72l5.48-5.61c4.06-4.15,7.15-6.09,11.89-7.47,3.53-1,7-1.64,7.76-1.35s3.89,5,7,10.6L144.75,106l-.33,14.26-.34,14.27Z"/><path id="path195" class="cls-8" d="M73.24,187a64.54,64.54,0,0,1-2.3-7.6c-1.56-6-1.55-7.54.11-14.5l1.87-7.79,11.91,0h11.9l12.89,7.54c14.81,8.67,15.22,6.43-3.16,17.15l-10.39,6.06H84.93c-6.13,0-11.39-.4-11.69-.89Z"/><path id="path196" class="cls-7" d="M123.8,258.14c-4.31-1.28-7.64-3.4-11.48-7.31l-5.41-5.51L112.83,235l5.92-10.3,12.49-7.16c6.87-3.94,12.7-7.17,13-7.17s.48,6.46.48,14.36v14.36l-6,10.5c-3.31,5.78-6.64,10.46-7.4,10.4a67,67,0,0,1-7.47-1.88Z"/><path id="path197" class="cls-7" d="M163.13,196.83c-1.84-3.42-2.57-3.9-4.4-2.92-2.55,1.36-8.14-1.63-8.14-4.36,0-1.15-1.56-1.64-5.25-1.64h-5.26l2.82-5c2.77-4.88,2.78-5,.52-6.58S140.13,169,142,169a6.54,6.54,0,0,0,2.46-1c1.25-.8,1.07-1.8-.89-5a21.39,21.39,0,0,1-2.45-4.91c0-.49,2.12-.89,4.73-.89,3.81,0,4.73-.43,4.73-2.18,0-2.56,5.27-5.29,8.33-4.32,1.52.49,2.75-.36,4.26-2.92,2.67-4.51,3.46-4.5,5.82.07,1.43,2.76,2.49,3.51,4.29,3,3.37-.87,8.08,1.54,8.08,4.14,0,1.79.94,2.18,5.23,2.18h5.23l-2.57,4.79c-2.42,4.53-2.45,4.88-.49,6.35a5.48,5.48,0,0,1,0,8.43c-1.81,1.32-1.85,1.84-.34,4.86l2.13,4.28c.24.49-1.75.89-4.4.89-4,0-4.84.39-4.84,2.34,0,3.33-5.11,6.46-8,4.9-1.92-1-2.55-.59-4.21,2.88-1.07,2.24-2.36,4.08-2.88,4.08s-1.93-1.84-3.14-4.1Z"/></svg>